HIERARCHY
ROOT Hips
{
    OFFSET   0.000000   0.000000   0.000000
    CHANNELS 6 Xposition Yposition Zposition Zrotation Xrotation Yrotation
    JOINT Chest
    {
        OFFSET   0.000000   8.007230   0.000000
        CHANNELS 3 Zrotation Xrotation Yrotation
        JOINT Chest2
        {
            OFFSET   0.000000  22.077100   0.000000
            CHANNELS 3 Zrotation Xrotation Yrotation
            JOINT Neck
            {
                OFFSET   0.000000  23.254800   0.000000
                CHANNELS 3 Zrotation Xrotation Yrotation
                JOINT Head
                {
                    OFFSET   0.000010  14.370000   1.956600
                    CHANNELS 3 Zrotation Xrotation Yrotation
                    End Site
                    {
                        OFFSET   0.000000  19.566000   0.000000
                    }
                }
            }
            JOINT LeftCollar
            {
                OFFSET   3.911900  19.017000  -0.467062
                CHANNELS 3 Zrotation Xrotation Yrotation
                JOINT LeftShoulder
                {
                    OFFSET  10.383700   0.000000   0.000000
                    CHANNELS 3 Zrotation Xrotation Yrotation
                    JOINT LeftElbow
                    {
                        OFFSET  26.662100   0.001193   0.000835
                        CHANNELS 3 Zrotation Xrotation Yrotation
                        JOINT LeftWrist
                        {
                            OFFSET  28.869000  -0.000058  -0.000075
                            CHANNELS 3 Zrotation Xrotation Yrotation
                            JOINT LeftFinger0
                            {
                                OFFSET   2.044660  -2.323460   3.252850
                                CHANNELS 3 Zrotation Xrotation Yrotation
                                JOINT LeftFinger01
                                {
                                    OFFSET   3.088130   0.000000   0.000000
                                    CHANNELS 3 Zrotation Xrotation Yrotation
                                    JOINT LeftFinger02
                                    {
                                        OFFSET   2.639450   0.000000   0.000000
                                        CHANNELS 3 Zrotation Xrotation Yrotation
                                        End Site
                                        {
                                            OFFSET   2.582190   0.000000   0.000000
                                        }
                                    }
                                }
                            }
                            JOINT LeftFinger1
                            {
                                OFFSET   8.364480   0.000000   3.252850
                                CHANNELS 3 Zrotation Xrotation Yrotation
                                JOINT LeftFinger11
                                {
                                    OFFSET   4.646920   0.000000   0.000000
                                    CHANNELS 3 Zrotation Xrotation Yrotation
                                    JOINT LeftFinger12
                                    {
                                        OFFSET   2.323460   0.000000   0.000000
                                        CHANNELS 3 Zrotation Xrotation Yrotation
                                        End Site
                                        {
                                            OFFSET   2.273050   0.000000   0.000000
                                        }
                                    }
                                }
                            }
                            JOINT LeftFinger2
                            {
                                OFFSET   8.364490   0.000016   1.078090
                                CHANNELS 3 Zrotation Xrotation Yrotation
                                JOINT LeftFinger21
                                {
                                    OFFSET   5.111620   0.000000   0.000000
                                    CHANNELS 3 Zrotation Xrotation Yrotation
                                    JOINT LeftFinger22
                                    {
                                        OFFSET   2.788150   0.000012   0.000000
                                        CHANNELS 3 Zrotation Xrotation Yrotation
                                        End Site
                                        {
                                            OFFSET   2.727660   0.000000   0.000000
                                        }
                                    }
                                }
                            }
                            JOINT LeftFinger3
                            {
                                OFFSET   7.899780   0.000014  -1.078090
                                CHANNELS 3 Zrotation Xrotation Yrotation
                                JOINT LeftFinger31
                                {
                                    OFFSET   4.646930   0.000000   0.000000
                                    CHANNELS 3 Zrotation Xrotation Yrotation
                                    JOINT LeftFinger32
                                    {
                                        OFFSET   2.323470   0.000000   0.000000
                                        CHANNELS 3 Zrotation Xrotation Yrotation
                                        End Site
                                        {
                                            OFFSET   2.273050   0.000000   0.000000
                                        }
                                    }
                                }
                            }
                            JOINT LeftFinger4
                            {
                                OFFSET   7.435090   0.000000  -3.252850
                                CHANNELS 3 Zrotation Xrotation Yrotation
                                JOINT LeftFinger41
                                {
                                    OFFSET   3.717550   0.000000   0.000000
                                    CHANNELS 3 Zrotation Xrotation Yrotation
                                    JOINT LeftFinger42
                                    {
                                        OFFSET   1.858770   0.000000   0.000000
                                        CHANNELS 3 Zrotation Xrotation Yrotation
                                        End Site
                                        {
                                            OFFSET   1.818440   0.000000   0.000000
                                        }
                                    }
                                }
                            }
                        }
                    }
                }
            }
            JOINT RightCollar
            {
                OFFSET  -3.911900  19.017000  -0.467063
                CHANNELS 3 Zrotation Xrotation Yrotation
                JOINT RightShoulder
                {
                    OFFSET -10.383700   0.000023   0.000000
                    CHANNELS 3 Zrotation Xrotation Yrotation
                    JOINT RightElbow
                    {
                        OFFSET -26.662100   0.001246   0.001011
                        CHANNELS 3 Zrotation Xrotation Yrotation
                        JOINT RightWrist
                        {
                            OFFSET -28.869000  -0.000026  -0.000078
                            CHANNELS 3 Zrotation Xrotation Yrotation
                            JOINT RightFinger0
                            {
                                OFFSET  -2.044660  -2.323490   3.252850
                                CHANNELS 3 Zrotation Xrotation Yrotation
                                JOINT RightFinger01
                                {
                                    OFFSET  -3.088130   0.000000   0.000000
                                    CHANNELS 3 Zrotation Xrotation Yrotation
                                    JOINT RightFinger02
                                    {
                                        OFFSET  -2.639460   0.000000   0.000000
                                        CHANNELS 3 Zrotation Xrotation Yrotation
                                        End Site
                                        {
                                            OFFSET  -2.582190   0.000000   0.000000
                                        }
                                    }
                                }
                            }
                            JOINT RightFinger1
                            {
                                OFFSET  -8.364480   0.000000   3.252850
                                CHANNELS 3 Zrotation Xrotation Yrotation
                                JOINT RightFinger11
                                {
                                    OFFSET  -4.646920   0.000000   0.000000
                                    CHANNELS 3 Zrotation Xrotation Yrotation
                                    JOINT RightFinger12
                                    {
                                        OFFSET  -2.323470   0.000000   0.000000
                                        CHANNELS 3 Zrotation Xrotation Yrotation
                                        End Site
                                        {
                                            OFFSET  -2.273050   0.000000   0.000000
                                        }
                                    }
                                }
                            }
                            JOINT RightFinger2
                            {
                                OFFSET  -8.364480   0.000000   1.078090
                                CHANNELS 3 Zrotation Xrotation Yrotation
                                JOINT RightFinger21
                                {
                                    OFFSET  -5.111620   0.000000   0.000000
                                    CHANNELS 3 Zrotation Xrotation Yrotation
                                    JOINT RightFinger22
                                    {
                                        OFFSET  -2.788160   0.000000   0.000000
                                        CHANNELS 3 Zrotation Xrotation Yrotation
                                        End Site
                                        {
                                            OFFSET  -2.727660   0.000000   0.000000
                                        }
                                    }
                                }
                            }
                            JOINT RightFinger3
                            {
                                OFFSET  -7.899780   0.000000  -1.078090
                                CHANNELS 3 Zrotation Xrotation Yrotation
                                JOINT RightFinger31
                                {
                                    OFFSET  -4.646930   0.000000   0.000000
                                    CHANNELS 3 Zrotation Xrotation Yrotation
                                    JOINT RightFinger32
                                    {
                                        OFFSET  -2.323470   0.000000   0.000000
                                        CHANNELS 3 Zrotation Xrotation Yrotation
                                        End Site
                                        {
                                            OFFSET  -2.273050   0.000000   0.000000
                                        }
                                    }
                                }
                            }
                            JOINT RightFinger4
                            {
                                OFFSET  -7.435090   0.000000  -3.252850
                                CHANNELS 3 Zrotation Xrotation Yrotation
                                JOINT RightFinger41
                                {
                                    OFFSET  -3.717550   0.000000   0.000000
                                    CHANNELS 3 Zrotation Xrotation Yrotation
                                    JOINT RightFinger42
                                    {
                                        OFFSET  -1.858760   0.000000   0.000000
                                        CHANNELS 3 Zrotation Xrotation Yrotation
                                        End Site
                                        {
                                            OFFSET  -1.818440   0.000000   0.000000
                                        }
                                    }
                                }
                            }
                        }
                    }
                }
            }
        }
    }
    JOINT LeftHip
    {
        OFFSET   9.783010   0.000000   0.000000
        CHANNELS 3 Zrotation Xrotation Yrotation
        JOINT LeftKnee
        {
            OFFSET   0.000073 -41.789100   0.001749
            CHANNELS 3 Zrotation Xrotation Yrotation
            JOINT LeftAnkle
            {
                OFFSET   0.000111 -41.133200  -0.000179
                CHANNELS 3 Zrotation Xrotation Yrotation
                JOINT LeftToe
                {
                    OFFSET   0.000000  -6.358960  14.674500
                    CHANNELS 3 Zrotation Xrotation Yrotation
                    End Site
                    {
                        OFFSET   0.000000   0.000000   3.913200
                    }
                }
            }
        }
    }
    JOINT RightHip
    {
        OFFSET  -9.783010   0.000000   0.000000
        CHANNELS 3 Zrotation Xrotation Yrotation
        JOINT RightKnee
        {
            OFFSET   0.000424 -41.789200   0.005205
            CHANNELS 3 Zrotation Xrotation Yrotation
            JOINT RightAnkle
            {
                OFFSET   0.000000 -41.133200  -0.000155
                CHANNELS 3 Zrotation Xrotation Yrotation
                JOINT RightToe
                {
                    OFFSET   0.000000  -6.358960  14.674500
                    CHANNELS 3 Zrotation Xrotation Yrotation
                    End Site
                    {
                        OFFSET   0.000000   0.000000   3.913200
                    }
                }
            }
        }
    }
}
MOTION
Frames: 6
Frame Time:   0.016667
 -3.118510  89.275500  -1.561390 -12.657100  -9.598700 -38.508700   2.551300  11.960000  -3.474480   6.064570  23.722300  -7.762950   5.133690   2.129530  -0.191461   8.464930   4.214800  24.682100  -1.043860  -0.868656   1.870380 -66.205500  26.396700 -11.661500  -8.118830  -9.670760 -15.624300  13.465700 -14.139600   3.952320  50.466700  39.702800 -77.549400 -20.939100   0.002470   0.003699  -5.469560  -0.002587  -0.001507 -29.335900   4.647400  -8.204480 -24.274200  -0.003026   0.002940 -16.992000  -0.003548   0.003758 -28.282900  -0.519354   0.965297 -34.097400  -0.005903   0.002669 -22.708900  -0.001620  -0.002336 -27.993500  -0.514440   0.968026 -31.983700  -0.004158   0.001885 -21.301200  -0.002468   0.001661 -29.310200  -0.536000   0.956390 -43.971800  -0.000327   0.003837 -29.285200  -0.004738   0.000882   8.039420  -0.388960   8.982000  30.997600  30.631200  13.436600 -25.062800   3.524680  59.181100 -16.300700  33.403800  -3.856970 -43.432800  28.478500  65.020100   1.533970  -0.016343  -0.026802  -4.233000  -0.001578  -0.014773   6.566280   2.803010  23.098000   5.842930  -0.002113   0.001121   4.090050  -0.001159  -0.000413   8.743690   1.275770   8.218430   8.836710  -0.002516  -0.002015   5.885270  -0.003006  -0.000816   2.181360   0.068584   2.438040   1.896590  -0.005227  -0.000222   1.272150  -0.002237   0.000157  11.196400  -2.696490 -13.390400  17.269600   0.003670   0.002595  11.501500   0.001502  -0.002164   2.675130  21.549700   8.930680   1.026960   0.741834  26.062400  -2.295590  -6.863910  12.196000   0.000000   0.000000   0.000000   7.353570  11.851400  -6.362490  -2.115840   4.702770   8.505940   0.596298  -1.802320  20.848500  -0.000000   0.000000   0.000000
 -3.138490  89.290100  -1.618650 -12.667100  -9.678920 -38.335300   2.511360  11.991700  -3.324490   5.947410  23.797400  -7.446920   5.083440   1.875440  -0.167062   8.375140   3.713590  24.856900  -1.154070  -1.111330   1.729420 -65.980000  26.655600 -11.890300  -7.958870  -9.943870 -15.561000  13.609200 -14.284100   4.082820  50.386200  39.605400 -77.461500 -20.898900   0.002468   0.003700  -5.449470  -0.002589  -0.001497 -29.301000   4.672820  -8.259870 -24.249600  -0.003026   0.002943 -16.974700  -0.003547   0.003750 -28.281400  -0.489286   0.909214 -34.086600  -0.005903   0.002668 -22.701700  -0.001619  -0.002331 -27.993100  -0.484749   0.911747 -31.977400  -0.004153   0.001881 -21.297000  -0.002469   0.001657 -29.300500  -0.505704   0.900842 -43.956500  -0.000334   0.003829 -29.275000  -0.004741   0.000868   7.971110  -0.571749   9.084720  31.615700  31.002300  13.065700 -24.088700   4.426810  57.897100 -16.206200  33.157000  -4.077700 -42.825300  27.998900  64.916200   2.770730  -0.016673  -0.027168  -3.614600  -0.002609  -0.016004   7.327860   3.097920  22.888000   6.510570  -0.001928   0.000491   4.557400  -0.001387  -0.000426   9.602180   1.353360   8.006520   9.696750  -0.002794  -0.002019   6.458050  -0.002998  -0.000718   2.780800   0.073016   1.978260   2.780120  -0.005589  -0.000267   1.851560  -0.002534   0.000103  11.955400  -2.905870 -13.415300  18.441800   0.005051   0.003224  12.282200   0.001707  -0.002331   2.735550  21.541600   8.969400   1.000830   0.759584  25.917500  -2.288210  -6.820630  12.091200   0.000000   0.000000  -0.000000   7.345560  11.920300  -6.260470  -2.061670   4.672920   8.207580   0.698325  -1.842990  20.869200   0.000000   0.000000   0.000000
 -3.156150  89.301600  -1.664750 -12.632800  -9.812160 -37.964100   2.483900  12.008300  -3.185300   5.855300  23.840700  -7.154170   5.019290   1.617180  -0.142177   8.263650   3.204320  24.967100  -1.270510  -1.339750   1.608670 -65.826600  26.885700 -12.129000  -7.775250 -10.145100 -15.525300  13.846500 -14.436900   4.196290  50.185600  39.448100 -77.316500 -20.905900   0.002471   0.003700  -5.452990  -0.002594  -0.001499 -29.319400   4.691700  -8.282440 -24.267200  -0.003028   0.002941 -16.987000  -0.003549   0.003752 -28.291000  -0.483662   0.898112 -34.169000  -0.005904   0.002663 -22.756600  -0.001621  -0.002332 -28.008500  -0.479376   0.900466 -32.080000  -0.004160   0.001880 -21.365300  -0.002468   0.001658 -29.349300  -0.501641   0.889129 -44.029900  -0.000336   0.003837 -29.323900  -0.004741   0.000859   7.963540  -0.829026   9.081860  32.352600  31.421200  12.445700 -22.955400   5.463140  56.229100 -15.402300  33.070500  -4.703250 -42.495600  27.686500  64.763100   3.636020  -0.014201  -0.019377  -3.181960  -0.003332  -0.017474   7.830770   3.269270  22.533800   6.943350  -0.001734  -0.000152   4.860340  -0.001607  -0.000418  10.115200   1.356910   7.716790  10.205000  -0.003074  -0.002030   6.796540  -0.002990  -0.000622   3.143470   0.055705   1.366350   3.158470  -0.005934  -0.000321   2.103540  -0.002840   0.000052  12.373200  -3.072450 -13.654200  19.105600   0.004972   0.003126  12.724300   0.001930  -0.002497   2.783000  21.522400   9.022050   0.995881   0.778940  25.709000  -2.289920  -6.774730  11.850700  -0.000000   0.000000   0.000000   7.342970  12.031900  -6.145070  -2.029780   4.603000   7.870910   0.743705  -1.861010  20.721300  -0.000000   0.000000   0.000000
 -3.176390  89.310900  -1.686650 -12.561900  -9.990780 -37.442300   2.461450  12.018900  -3.053730   5.786520  23.870700  -6.878460   4.942420   1.356090  -0.117356   8.131850   2.688720  25.032000  -1.388930  -1.573470   1.492920 -65.685200  27.105100 -12.358300  -7.584840 -10.314100 -15.515400  14.100300 -14.599100   4.301150  49.953800  39.283500 -77.177500 -20.933100   0.002474   0.003701  -5.466560  -0.002597  -0.001500 -29.361600   4.701730  -8.289420 -24.302400  -0.003031   0.002938 -17.011700  -0.003552   0.003755 -28.307400  -0.482858   0.896526 -34.311600  -0.005906   0.002657 -22.851600  -0.001622  -0.002333 -28.034000  -0.478609   0.898854 -32.251400  -0.004166   0.001880 -21.479400  -0.002466   0.001659 -29.443100  -0.501061   0.887456 -44.171100  -0.000337   0.003845 -29.418000  -0.004740   0.000848   7.998560  -1.132000   9.059150  33.218500  31.906400  11.639200 -21.602800   6.598740  54.202600 -14.193900  33.007500  -5.492700 -42.336700  27.457400  64.611800   4.293430  -0.011729  -0.011586  -2.853270  -0.003665  -0.018749   8.182250   3.333240  22.096700   7.228230  -0.001505  -0.000777   5.059760  -0.001830  -0.000406  10.452700   1.358350   7.378220  10.539800  -0.003352  -0.002041   7.019510  -0.002985  -0.000531   3.365890   0.017649   0.651583   3.363540  -0.006260  -0.000377   2.240130  -0.003154   0.000000  12.639100  -3.222040 -14.030500  19.549000   0.004762   0.002787  13.019600   0.001993  -0.002660   2.823310  21.507700   9.077360   0.999229   0.789619  25.438600  -2.298530  -6.715170  11.518400  -0.000000   0.000000  -0.000000   7.349460  12.186900  -5.995010  -1.999380   4.508960   7.449520   0.753988  -1.879940  20.423200   0.000000   0.000000   0.000000
 -3.205460  89.317500  -1.681350 -12.478400 -10.220600 -36.793100   2.449710  12.032000  -2.928680   5.736610  23.904500  -6.618690   4.845680   1.091710  -0.092556   7.968830   2.165780  25.077200  -1.509190  -1.836150   1.358890 -65.592900  27.317000 -12.541500  -7.410140 -10.465300 -15.556300  14.307400 -14.813000   4.395820  49.724500  39.155100 -77.091800 -20.998500   0.002464   0.003694  -5.499290  -0.002590  -0.001496 -29.428500   4.688250  -8.248950 -24.355700  -0.003031   0.002930 -17.049000  -0.003549   0.003759 -28.325300  -0.502549   0.932528 -34.469900  -0.005906   0.002672 -22.957000  -0.001621  -0.002332 -28.056200  -0.498203   0.934909 -32.416300  -0.004164   0.001883 -21.589200  -0.002469   0.001655 -29.557700  -0.522643   0.922098 -44.343400  -0.000335   0.003836 -29.532800  -0.004741   0.000831   8.050600  -1.470590   8.976190  34.216400  32.558800  10.709100 -20.132500   7.640360  51.783900 -13.184800  32.915600  -6.222190 -42.186300  27.281000  64.533400   4.807630  -0.012932  -0.018191  -2.596200  -0.003589  -0.019986   8.384910   3.325010  21.631000   7.380480  -0.001236  -0.001360   5.166340  -0.002064  -0.000398  10.733800   1.330930   7.022070  10.815900  -0.003626  -0.002049   7.203390  -0.002990  -0.000450   3.590280  -0.032588  -0.083084   3.589140  -0.006568  -0.000431   2.390370  -0.003474  -0.000057  12.908700  -3.374520 -14.351400  19.996600   0.004436   0.002117  13.317700   0.001935  -0.002817   2.852840  21.531800   9.134590   1.022550   0.766595  25.109800  -2.315800  -6.636260  11.118100   0.000000   0.000000   0.000000   7.374600  12.403700  -5.787930  -1.976980   4.386510   6.895290   0.713509  -1.907440  20.072500   0.000000   0.000000  -0.000000
 -3.236220  89.322300  -1.665540 -12.368800 -10.475800 -36.030000   2.446440  12.039800  -2.811840   5.703260  23.927000  -6.376970   4.730550   0.837505  -0.069191   7.776580   1.662500  25.095800  -1.628460  -2.101890   1.235070 -65.542800  27.514100 -12.692800  -7.243650 -10.584900 -15.637300  14.481300 -15.014100   4.481580  49.535500  39.058100 -77.047600 -21.059800   0.002455   0.003685  -5.529930  -0.002582  -0.001491 -29.476700   4.667470  -8.191930 -24.391200  -0.003031   0.002925 -17.073900  -0.003546   0.003762 -28.335900  -0.531043   0.984766 -34.568000  -0.005906   0.002686 -23.022300  -0.001620  -0.002331 -28.074000  -0.526555   0.987222 -32.527800  -0.004159   0.001887 -21.663500  -0.002471   0.001650 -29.660400  -0.553824   0.972440 -44.498300  -0.000334   0.003827 -29.635900  -0.004741   0.000809   8.102110  -1.809140   8.860120  35.326500  33.225100   9.668180 -18.458000   8.613260  49.065600 -12.160000  32.728700  -6.943860 -42.018300  27.065300  64.420200   5.283790  -0.014134  -0.027360  -2.358120  -0.003421  -0.020643   8.544960   3.316630  21.156800   7.502650  -0.000944  -0.001915   5.251870  -0.002304  -0.000395  10.959000   1.285620   6.679910  11.035500  -0.003900  -0.002052   7.349660  -0.003002  -0.000379   3.790360  -0.092796  -0.841290   3.792210  -0.006853  -0.000486   2.525610  -0.003799  -0.000118  13.155100  -3.528250 -14.677500  20.411600   0.004002   0.001302  13.594100   0.001795  -0.002969   2.878500  21.568000   9.168000   1.065510   0.711943  24.738800  -2.338570  -6.540440  10.662300  -0.000000   0.000000   0.000000   7.395680  12.650800  -5.508770  -1.934890   4.251790   6.204610   0.648601  -1.951130  19.669200  -0.000000   0.000000  -0.000000
